<?xml version="1.0" encoding="UTF-8"?>
<svg data-bbox="9.498 27.298 483.404 446.002" viewBox="0 0 500 500" xmlns="http://www.w3.org/2000/svg" data-type="color">
    <g>
        <path d="M255 342.2c-41.8 0-75.9-34-75.9-75.9 0-41.8 34-75.9 75.9-75.9 41.8 0 75.9 34 75.9 75.9s-34.1 75.9-75.9 75.9m0-121.7c-25.3 0-45.9 20.6-45.9 45.9s20.6 45.9 45.9 45.9 45.9-20.6 45.9-45.9-20.6-45.9-45.9-45.9" fill="#231F20" data-color="1"/>
        <path d="M379.6 473.3H128.8c-8.3 0-15-6.7-15-15 0-72.8 63-132.1 140.4-132.1s140.4 59.3 140.4 132.1c0 8.3-6.7 15-15 15m-234.7-30h218.5c-7.9-49.2-53.9-87.1-109.2-87.1-55.4 0-101.4 37.9-109.3 87.1" fill="#231F20" data-color="1"/>
        <path d="M397.3 298.4c-8.3 0-15-6.7-15-15 0-28.9-14.2-59.6-39.1-84.1-25.4-25.1-58-39.5-89.5-39.5s-64.1 14.4-89.5 39.5c-24.8 24.5-39.1 55.2-39.1 84.1 0 8.3-6.7 15-15 15s-15-6.7-15-15c0-36.9 17.5-75.3 48-105.5 31-30.6 71.3-48.1 110.6-48.1s79.6 17.5 110.6 48.1c30.5 30.1 48 68.6 48 105.5 0 8.3-6.7 15-15 15" fill="#231F20" data-color="1"/>
        <path d="M70.8 271.4h-.2L16.8 270c-4.1-.1-7.4-3.6-7.3-7.7s3.6-7.4 7.7-7.3l35.7.9-.1-.1c-2.9-3-2.7-7.8.3-10.6 3-2.9 7.8-2.7 10.6.3l12.6 13.3c2.1 2.2 2.6 5.4 1.4 8.2-1.3 2.7-3.9 4.4-6.9 4.4" fill="#231F20" data-color="1"/>
        <path d="M56.2 285.3c-2 0-4-.8-5.4-2.3-2.9-3-2.7-7.8.3-10.6l14.6-13.9c3-2.9 7.8-2.7 10.6.3 2.9 3 2.7 7.8-.3 10.6l-14.6 13.9c-1.5 1.3-3.4 2-5.2 2" fill="#231F20" data-color="1"/>
        <path d="M127.1 145.3c-2 0-4-.8-5.4-2.3l-37.1-39.1c-2.9-3-2.7-7.8.3-10.6 3-2.9 7.8-2.7 10.6.3l24.6 25.9v-.2c.1-4.1 3.5-7.4 7.7-7.3 4.1.1 7.4 3.6 7.3 7.7l-.5 18.3c-.1 3-2 5.7-4.8 6.8-.9.4-1.8.5-2.7.5" fill="#231F20" data-color="1"/>
        <path d="M127.1 145.3h-.2l-20.2-.5c-4.1-.1-7.4-3.6-7.3-7.7s3.6-7.4 7.7-7.3l20.2.5c4.1.1 7.4 3.6 7.3 7.7s-3.4 7.3-7.5 7.3" fill="#231F20" data-color="1"/>
        <path d="M256.1 96c-1 0-2.1-.2-3-.6-2.8-1.2-4.5-4-4.4-7l1.4-53.8c.1-4.1 3.6-7.4 7.7-7.3s7.4 3.6 7.3 7.7l-.9 35.7.1-.1c3-2.9 7.8-2.7 10.6.3 2.9 3 2.7 7.8-.3 10.6l-13.3 12.6c-1.5 1.2-3.3 1.9-5.2 1.9" fill="#231F20" data-color="1"/>
        <path d="M256.1 96c-2 0-4-.8-5.4-2.3L236.8 79c-2.9-3-2.7-7.8.3-10.6 3-2.9 7.8-2.7 10.6.3l13.9 14.6c2.9 3 2.7 7.8-.3 10.6-1.5 1.4-3.4 2.1-5.2 2.1" fill="#231F20" data-color="1"/>
        <path d="M400.5 152.8h-.2l-18.3-.5c-3-.1-5.7-2-6.8-4.8s-.4-6 1.8-8.1l39.1-37.1c3-2.8 7.8-2.7 10.6.3s2.7 7.8-.3 10.6l-25.9 24.6h.2c4.1.1 7.4 3.6 7.3 7.7-.2 4-3.5 7.3-7.5 7.3" fill="#231F20" data-color="1"/>
        <path d="M382.2 152.3h-.2c-4.1-.1-7.4-3.6-7.3-7.7l.5-20.2c.1-4.1 3.6-7.4 7.7-7.3s7.4 3.6 7.3 7.7l-.5 20.2c-.1 4.1-3.5 7.3-7.5 7.3" fill="#231F20" data-color="1"/>
        <path d="M444.1 294.5c-2 0-4-.8-5.4-2.3l-12.6-13.3c-2.1-2.2-2.6-5.4-1.4-8.2 1.2-2.7 3.9-4.4 6.9-4.4h.2l53.8 1.4c4.1.1 7.4 3.6 7.3 7.7s-3.4 7.3-7.5 7.3h-.2l-35.7-.9.1.1c2.9 3 2.7 7.8-.3 10.6-1.5 1.4-3.3 2-5.2 2" fill="#231F20" data-color="1"/>
        <path d="M431.5 281.3c-2 0-4-.8-5.4-2.3-2.9-3-2.7-7.8.3-10.6l14.6-13.9c3-2.9 7.8-2.7 10.6.3 2.9 3 2.7 7.8-.3 10.6l-14.6 13.9c-1.5 1.3-3.3 2-5.2 2" fill="#231F20" data-color="1"/>
    </g>
</svg>
