<?xml version="1.0" encoding="UTF-8"?>
<svg data-bbox="3.996 36.424 492.658 424.576" viewBox="0 0 500 500" xmlns="http://www.w3.org/2000/svg" data-type="color">
    <g>
        <path d="M269.3 304.9c-1.8 0-3.6-.3-5.3-.8L19.7 226.6c-7.1-2.2-12-8.7-12.2-16.1s4.2-14.2 11.1-16.9c65.1-25.5 141.4-58.4 151.2-67 1.7-1.6 3.4-3 4.9-4.4 11.8-10.5 13.3-11.9 16.9-35.7 2.2-14.6 2.1-32.3 2.1-32.5 0-5.4 2.5-10.6 6.8-13.9s9.9-4.5 15.1-3.1l248.8 64.9c4.9 1.3 9 4.7 11.3 9.2 1.7 3.5 9.9 23 1.4 61.9-4.1 18.8-6.4 24.6-21.4 42.4-3.8 4.5-10.8 12.8-97.6 52.1-41.3 18.7-81.6 35.7-82 35.9-2.2.9-4.5 1.4-6.8 1.4Zm-192.6-97 191.7 60.8c12.3-5.2 42-18 72.7-31.8 72.7-32.8 86-42.4 88.2-44.3 10.5-12.5 10.7-13.2 13.7-27 3.4-15.4 3.3-26.1 2.6-32.4L228 76.4c-.4 4.9-.9 10.2-1.6 15.2-4.9 33.4-11.3 41.7-28.2 56.8-1.4 1.3-3 2.6-4.6 4.1-3.9 3.5-13 11.8-89.7 44.2-9.3 3.9-18.4 7.7-26.9 11.2Z" fill="#231f20" data-color="1"/>
        <path d="M266.2 382.9c-1.8 0-3.5-.3-5.2-.8L19.8 306.8c-9.2-2.9-14.4-12.7-11.5-21.9s12.7-14.4 21.9-11.5l234.9 73.3L469.2 255c8.8-4 19.2 0 23.1 8.8 4 8.8 0 19.2-8.8 23.1l-210.2 94.4q-3.45 1.5-7.2 1.5Z" fill="#231f20" data-color="1"/>
        <path d="M267.1 461c-1.8 0-3.5-.3-5.2-.8L16.3 383.5c-9.2-2.9-14.4-12.7-11.5-21.9s12.7-14.4 21.9-11.5l239.2 74.7L472 332c8.8-4 19.2 0 23.1 8.8 4 8.8 0 19.2-8.8 23.1l-212.2 95.5q-3.45 1.5-7.2 1.5Z" fill="#231f20" data-color="1"/>
    </g>
</svg>
