<?xml version="1.0" encoding="UTF-8"?>
<svg data-bbox="18.57 3.41 463.51 493.84" viewBox="0 0 500 500" xmlns="http://www.w3.org/2000/svg" data-type="color">
    <g>
        <path d="M394.33 497.24H33.57c-8.28 0-15-6.72-15-15V18.41c0-8.28 6.72-15 15-15h360.76c8.28 0 15 6.72 15 15v463.83c0 8.28-6.72 15-15 15m-345.76-30h330.76V33.41H48.57z" fill="#231f20" data-color="1"/>
        <path d="M113.91 167.41c-8.28 0-15-6.72-15-15V82.68c0-8.28 6.72-15 15-15s15 6.72 15 15v69.73c0 8.28-6.72 15-15 15" fill="#231f20" data-color="1"/>
        <path d="M213.95 167.41c-8.28 0-15-6.72-15-15V82.68c0-8.28 6.72-15 15-15s15 6.72 15 15v69.73c0 8.28-6.72 15-15 15" fill="#231f20" data-color="1"/>
        <path d="M313.99 167.41c-8.28 0-15-6.72-15-15V82.68c0-8.28 6.72-15 15-15s15 6.72 15 15v69.73c0 8.28-6.72 15-15 15" fill="#231f20" data-color="1"/>
        <path d="M113.91 303.07c-8.28 0-15-6.72-15-15v-69.73c0-8.28 6.72-15 15-15s15 6.72 15 15v69.73c0 8.28-6.72 15-15 15" fill="#231f20" data-color="1"/>
        <path d="M213.95 303.07c-8.28 0-15-6.72-15-15v-69.73c0-8.28 6.72-15 15-15s15 6.72 15 15v69.73c0 8.28-6.72 15-15 15" fill="#231f20" data-color="1"/>
        <path d="M313.99 303.07c-8.28 0-15-6.72-15-15v-69.73c0-8.28 6.72-15 15-15s15 6.72 15 15v69.73c0 8.28-6.72 15-15 15" fill="#231f20" data-color="1"/>
        <path d="M113.91 438.74c-8.28 0-15-6.72-15-15v-69.73c0-8.28 6.72-15 15-15s15 6.72 15 15v69.73c0 8.28-6.72 15-15 15" fill="#231f20" data-color="1"/>
        <path d="M213.95 438.74c-8.28 0-15-6.72-15-15v-69.73c0-8.28 6.72-15 15-15s15 6.72 15 15v69.73c0 8.28-6.72 15-15 15" fill="#231f20" data-color="1"/>
        <path d="M313.99 438.74c-8.28 0-15-6.72-15-15v-69.73c0-8.28 6.72-15 15-15s15 6.72 15 15v69.73c0 8.28-6.72 15-15 15" fill="#231f20" data-color="1"/>
        <path d="M467.08 497.24c-8.28 0-15-6.72-15-15V19.32c0-8.28 6.72-15 15-15s15 6.72 15 15v462.93c0 8.28-6.72 15-15 15Z" fill="#231f20" data-color="1"/>
    </g>
</svg>
